<?xml version="1.0" encoding="UTF-8"?>
<svg id="Layer_1" xmlns="http://www.w3.org/2000/svg" version="1.1" viewBox="0 0 300 300">
  <!-- Generator: Adobe Illustrator 29.6.1, SVG Export Plug-In . SVG Version: 2.1.1 Build 9)  -->
  <defs>
    <style>
      .st0 {
        display: none;
      }

      .st0, .st1 {
        fill: #421414;
        fill-rule: evenodd;
      }
    </style>
  </defs>
  <path class="st0" d="M150,0C67.16,0,0,67.16,0,150s67.16,150,150,150,150-67.16,150-150S232.84,0,150,0ZM231.17,207.65c-3.45,9.67-20,18.5-27.96,19.69-7.14,1.07-16.17,1.51-26.09-1.64-6.02-1.91-13.73-4.46-23.62-8.72-41.56-17.94-68.7-59.77-70.77-62.54-2.07-2.76-16.92-22.46-16.92-42.84s10.7-30.4,14.5-34.55,8.29-5.18,11.05-5.18,5.53.03,7.94.15c2.54.13,5.96-.97,9.32,7.11,3.45,8.29,11.74,28.68,12.77,30.75,1.04,2.07,1.73,4.49.35,7.26-1.38,2.76-2.07,4.49-4.14,6.91s-4.35,5.4-6.21,7.26c-2.07,2.06-4.23,4.31-1.82,8.45,2.42,4.15,10.73,17.71,23.05,28.69,15.82,14.11,29.17,18.48,33.32,20.56,4.14,2.07,6.56,1.73,8.98-1.04,2.42-2.76,10.36-12.09,13.12-16.24,2.76-4.15,5.52-3.45,9.32-2.07,3.8,1.38,24.17,11.4,28.31,13.47s6.9,3.11,7.94,4.84c1.04,1.73,1.04,10.02-2.42,19.69h-.02Z"/>
  <g>
    <path class="st1" d="M129.24,113.95h-7.17c-1.1,0-1.99.89-1.99,1.99v44.54c0,1.1.89,1.99,1.99,1.99h7.17c1.1,0,1.99-.89,1.99-1.99v-44.54c0-1.1-.89-1.99-1.99-1.99Z"/>
    <path class="st1" d="M111.96,151.31h-19.48v-35.37c0-1.1-.89-1.99-1.99-1.99h-7.17c-1.1,0-1.99.89-1.99,1.99v44.54h0c0,.54.21,1.02.56,1.38,0,0,.02.02.03.03,0,0,.02.02.03.03.36.34.84.56,1.37.56h28.65c1.1,0,1.99-.89,1.99-1.99v-7.17c0-1.1-.89-1.99-1.99-1.99Z"/>
    <path class="st1" d="M178.6,113.95h-7.17c-1.1,0-1.99.89-1.99,1.99v26.46l-20.41-27.57c-.05-.07-.1-.14-.15-.2h-.01c-.04-.06-.08-.1-.12-.14-.01-.01-.02-.02-.04-.03-.03-.03-.07-.06-.11-.09-.02-.01-.03-.03-.05-.04-.03-.02-.07-.05-.1-.07-.02-.01-.04-.02-.06-.04-.04-.02-.07-.04-.11-.06-.02,0-.04-.02-.06-.03-.04-.02-.07-.03-.11-.05-.02,0-.04-.02-.06-.02-.04-.01-.08-.03-.12-.04-.02,0-.05-.01-.07-.02-.04,0-.08-.02-.11-.03-.03,0-.06,0-.08-.01-.03,0-.07,0-.11-.01-.03,0-.07,0-.1,0-.02,0-.05,0-.07,0h-7.17c-1.1,0-1.99.89-1.99,1.99v44.54c0,1.1.89,1.99,1.99,1.99h7.17c1.1,0,1.99-.89,1.99-1.99v-26.45l20.44,27.6c.14.2.31.36.51.49,0,0,.01,0,.02.02.04.03.08.05.12.07.02.01.04.02.06.03.03.02.06.03.1.05.03.01.06.03.1.04.02,0,.04.02.06.02.05.02.09.03.14.04,0,0,.02,0,.03,0,.16.04.33.07.51.07h7.17c1.1,0,1.99-.89,1.99-1.99v-44.54c0-1.1-.89-1.99-1.99-1.99Z"/>
    <path class="st1" d="M150.5.5C67.66.5.5,67.66.5,150.5s67.16,150,150,150,150-67.16,150-150S233.34.5,150.5.5ZM230.33,187.09c-21.45,24.69-69.4,54.75-80.32,59.35-10.91,4.6-9.3-2.93-8.85-5.51.26-1.54,1.46-8.75,1.46-8.75.34-2.61.7-6.66-.33-9.24-1.15-2.85-5.68-4.32-9.01-5.04-49.12-6.49-85.49-40.84-85.49-81.84,0-45.74,45.86-82.95,102.22-82.95s102.22,37.21,102.22,82.95c0,18.31-7.1,34.79-21.91,51.04h0Z"/>
    <path class="st1" d="M218.19,113.95h-28.65c-.54,0-1.02.21-1.38.56,0,0-.02.01-.02.02-.01.01-.02.02-.03.04-.34.36-.55.84-.55,1.37h0v44.54h0c0,.54.21,1.02.56,1.38,0,0,.02.02.03.03,0,0,.02.02.03.03.36.34.84.56,1.37.56h28.65c1.1,0,1.99-.89,1.99-1.99v-7.17c0-1.1-.89-1.99-1.99-1.99h-19.48v-7.53h19.48c1.1,0,1.99-.89,1.99-1.99v-7.17c0-1.1-.89-1.99-1.99-1.99h-19.48v-7.53h19.48c1.1,0,1.99-.89,1.99-1.99v-7.17c0-1.1-.89-1.99-1.99-1.99Z"/>
  </g>
</svg>