<?xml version="1.0" encoding="UTF-8"?>
<svg id="Layer_1" xmlns="http://www.w3.org/2000/svg" version="1.1" viewBox="0 0 500 500">
  <!-- Generator: Adobe Illustrator 29.6.1, SVG Export Plug-In . SVG Version: 2.1.1 Build 9)  -->
  <defs>
    <style>
      .st0 {
        fill: #541818;
      }
    </style>
  </defs>
  <path class="st0" d="M436.88,246.29c-21.39-10.07-42.11-27.63-61.24-43.75-19.44-16.37-38.23-34.72-55.17-55.56-31.93-39.28-56.8-89.01-69.23-145.01-.22-1.01-.54-1.97-1.24-1.97s-1.01.96-1.24,1.97c-12.43,56-37.31,105.73-69.23,145.01-16.94,20.84-35.73,39.19-55.17,55.56-19.13,16.11-39.85,33.67-61.24,43.75-1.49.7-2.15,2.18-2.22,3.71.07,1.53.73,3.01,2.22,3.71,21.39,10.07,42.11,27.63,61.24,43.75,19.44,16.37,38.23,34.72,55.17,55.56,31.93,39.28,56.8,89.01,69.23,145.01.22,1.01.55,1.97,1.24,1.97s1.01-.96,1.24-1.97c12.43-56,37.31-105.73,69.23-145.01,16.94-20.84,35.73-39.19,55.17-55.56,19.13-16.11,39.85-33.67,61.24-43.75,1.49-.7,2.15-2.18,2.22-3.71-.07-1.53-.73-3.01-2.22-3.71Z"/>
</svg>