<?xml version="1.0" encoding="UTF-8"?>
<svg id="Layer_1" xmlns="http://www.w3.org/2000/svg" version="1.1" viewBox="0 0 300 300">
  <!-- Generator: Adobe Illustrator 29.6.1, SVG Export Plug-In . SVG Version: 2.1.1 Build 9)  -->
  <defs>
    <style>
      .st0 {
        fill: #421414;
        fill-rule: evenodd;
      }
    </style>
  </defs>
  <path class="st0" d="M150,0C67.16,0,0,67.16,0,150s67.16,150,150,150,150-67.16,150-150S232.84,0,150,0ZM86.05,93.85h128.21c2.82,0,5.5.6,7.93,1.66-.59.33-1.15.74-1.62,1.28l-57.3,65.02c-3.32,3.76-8.09,5.92-13.11,5.92s-9.79-2.16-13.11-5.92l-58.31-66.17c-.09-.1-.2-.18-.3-.28,2.34-.98,4.91-1.52,7.61-1.52ZM234.07,203.21c0,10.94-8.87,19.81-19.8,19.81H86.05c-10.94,0-19.81-8.87-19.81-19.81v-89.56c0-3.74,1.06-7.22,2.85-10.2.1.14.19.29.3.43l58.31,66.17c5.68,6.44,13.85,10.13,22.44,10.13s16.76-3.69,22.44-10.13l57.3-65.02c.5-.57.86-1.22,1.12-1.89,1.92,3.05,3.05,6.65,3.05,10.52v89.56Z"/>
</svg>