<?xml version="1.0" encoding="UTF-8"?>
<svg id="Layer_1" xmlns="http://www.w3.org/2000/svg" version="1.1" viewBox="0 0 1080 1080">
  <!-- Generator: Adobe Illustrator 29.6.1, SVG Export Plug-In . SVG Version: 2.1.1 Build 9)  -->
  <defs>
    <style>
      .st0 {
        fill: #541818;
      }
    </style>
  </defs>
  <rect class="st0" x="5.33" y="303.26" width="26.58" height="26.58"/>
  <rect class="st0" x="5.33" y="340.5" width="26.58" height="26.58"/>
  <rect class="st0" x="5.33" y="377.74" width="26.58" height="26.58"/>
  <rect class="st0" x="5.33" y="414.98" width="26.58" height="26.58"/>
  <rect class="st0" x="5.33" y="563.95" width="26.58" height="26.58"/>
  <rect class="st0" x="5.33" y="601.19" width="26.58" height="26.58"/>
  <rect class="st0" x="5.33" y="638.43" width="26.58" height="26.58"/>
  <rect class="st0" x="5.33" y="675.67" width="26.58" height="26.58"/>
  <rect class="st0" x="5.33" y="712.91" width="26.58" height="26.58"/>
  <rect class="st0" x="5.33" y="750.16" width="26.58" height="26.58"/>
  <rect class="st0" x="42.57" y="303.26" width="26.58" height="26.58"/>
  <rect class="st0" x="42.57" y="340.5" width="26.58" height="26.58"/>
  <rect class="st0" x="42.57" y="377.74" width="26.58" height="26.58"/>
  <rect class="st0" x="42.57" y="414.98" width="26.58" height="26.58"/>
  <rect class="st0" x="42.57" y="526.71" width="26.58" height="26.58"/>
  <rect class="st0" x="42.57" y="563.95" width="26.58" height="26.58"/>
  <rect class="st0" x="42.57" y="638.43" width="26.58" height="26.58"/>
  <rect class="st0" x="42.57" y="675.67" width="26.58" height="26.58"/>
  <rect class="st0" x="79.81" y="452.23" width="26.58" height="26.58"/>
  <rect class="st0" x="79.81" y="489.47" width="26.58" height="26.58"/>
  <rect class="st0" x="79.81" y="526.71" width="26.58" height="26.58"/>
  <rect class="st0" x="79.81" y="563.95" width="26.58" height="26.58"/>
  <rect class="st0" x="117.06" y="303.26" width="26.58" height="26.58"/>
  <rect class="st0" x="117.06" y="340.5" width="26.58" height="26.58"/>
  <rect class="st0" x="117.06" y="452.23" width="26.58" height="26.58"/>
  <rect class="st0" x="117.06" y="601.19" width="26.58" height="26.58"/>
  <rect class="st0" x="117.06" y="638.43" width="26.58" height="26.58"/>
  <rect class="st0" x="117.06" y="675.67" width="26.58" height="26.58"/>
  <rect class="st0" x="117.06" y="712.91" width="26.58" height="26.58"/>
  <rect class="st0" x="154.3" y="377.74" width="26.58" height="26.58"/>
  <rect class="st0" x="154.3" y="414.98" width="26.58" height="26.58"/>
  <rect class="st0" x="154.3" y="452.23" width="26.58" height="26.58"/>
  <rect class="st0" x="154.3" y="489.47" width="26.58" height="26.58"/>
  <rect class="st0" x="154.3" y="638.43" width="26.58" height="26.58"/>
  <rect class="st0" x="154.3" y="675.67" width="26.58" height="26.58"/>
  <rect class="st0" x="154.3" y="712.91" width="26.58" height="26.58"/>
  <rect class="st0" x="191.54" y="340.5" width="26.58" height="26.58"/>
  <rect class="st0" x="191.54" y="377.74" width="26.58" height="26.58"/>
  <rect class="st0" x="191.54" y="452.23" width="26.58" height="26.58"/>
  <rect class="st0" x="191.54" y="526.71" width="26.58" height="26.58"/>
  <rect class="st0" x="191.54" y="675.67" width="26.58" height="26.58"/>
  <rect class="st0" x="191.54" y="712.91" width="26.58" height="26.58"/>
  <rect class="st0" x="191.54" y="750.16" width="26.58" height="26.58"/>
  <rect class="st0" x="228.78" y="303.26" width="26.58" height="26.58"/>
  <rect class="st0" x="228.78" y="377.74" width="26.58" height="26.58"/>
  <rect class="st0" x="228.78" y="452.23" width="26.58" height="26.58"/>
  <rect class="st0" x="228.78" y="526.71" width="26.58" height="26.58"/>
  <rect class="st0" x="228.78" y="601.19" width="26.58" height="26.58"/>
  <rect class="st0" x="228.78" y="675.67" width="26.58" height="26.58"/>
  <rect class="st0" x="228.78" y="750.16" width="26.58" height="26.58"/>
  <rect class="st0" x="266.02" y="303.26" width="26.58" height="26.58"/>
  <rect class="st0" x="266.02" y="340.5" width="26.58" height="26.58"/>
  <rect class="st0" x="266.02" y="452.23" width="26.58" height="26.58"/>
  <rect class="st0" x="266.02" y="489.47" width="26.58" height="26.58"/>
  <rect class="st0" x="266.02" y="526.71" width="26.58" height="26.58"/>
  <rect class="st0" x="266.02" y="638.43" width="26.58" height="26.58"/>
  <rect class="st0" x="266.02" y="712.91" width="26.58" height="26.58"/>
  <rect class="st0" x="303.26" y="5.33" width="26.58" height="26.58"/>
  <rect class="st0" x="303.26" y="79.81" width="26.58" height="26.58"/>
  <rect class="st0" x="303.26" y="117.05" width="26.58" height="26.58"/>
  <rect class="st0" x="303.26" y="191.54" width="26.58" height="26.58"/>
  <rect class="st0" x="303.26" y="228.78" width="26.58" height="26.58"/>
  <rect class="st0" x="303.26" y="266.02" width="26.58" height="26.58"/>
  <rect class="st0" x="303.26" y="452.23" width="26.58" height="26.58"/>
  <rect class="st0" x="303.26" y="489.47" width="26.58" height="26.58"/>
  <rect class="st0" x="303.26" y="526.71" width="26.58" height="26.58"/>
  <rect class="st0" x="303.26" y="601.19" width="26.58" height="26.58"/>
  <rect class="st0" x="303.26" y="675.67" width="26.58" height="26.58"/>
  <rect class="st0" x="303.26" y="824.64" width="26.58" height="26.58"/>
  <rect class="st0" x="303.26" y="936.36" width="26.58" height="26.58"/>
  <rect class="st0" x="303.26" y="1010.84" width="26.58" height="26.58"/>
  <rect class="st0" x="303.26" y="1048.08" width="26.58" height="26.58"/>
  <rect class="st0" x="340.5" y="42.57" width="26.58" height="26.58"/>
  <rect class="st0" x="340.5" y="79.81" width="26.58" height="26.58"/>
  <rect class="st0" x="340.5" y="117.05" width="26.58" height="26.58"/>
  <rect class="st0" x="340.5" y="266.02" width="26.58" height="26.58"/>
  <rect class="st0" x="340.5" y="303.26" width="26.58" height="26.58"/>
  <rect class="st0" x="340.5" y="340.5" width="26.58" height="26.58"/>
  <rect class="st0" x="340.5" y="377.74" width="26.58" height="26.58"/>
  <rect class="st0" x="340.5" y="452.23" width="26.58" height="26.58"/>
  <rect class="st0" x="340.5" y="563.95" width="26.58" height="26.58"/>
  <rect class="st0" x="340.5" y="601.19" width="26.58" height="26.58"/>
  <rect class="st0" x="340.5" y="675.67" width="26.58" height="26.58"/>
  <rect class="st0" x="340.5" y="712.91" width="26.58" height="26.58"/>
  <rect class="st0" x="340.5" y="787.4" width="26.58" height="26.58"/>
  <rect class="st0" x="340.5" y="824.64" width="26.58" height="26.58"/>
  <rect class="st0" x="340.5" y="861.88" width="26.58" height="26.58"/>
  <rect class="st0" x="340.5" y="899.12" width="26.58" height="26.58"/>
  <rect class="st0" x="340.5" y="1048.08" width="26.58" height="26.58"/>
  <rect class="st0" x="377.74" y="42.57" width="26.58" height="26.58"/>
  <rect class="st0" x="377.74" y="79.81" width="26.58" height="26.58"/>
  <rect class="st0" x="377.74" y="154.3" width="26.58" height="26.58"/>
  <rect class="st0" x="377.74" y="228.78" width="26.58" height="26.58"/>
  <rect class="st0" x="377.74" y="340.5" width="26.58" height="26.58"/>
  <rect class="st0" x="377.74" y="414.98" width="26.58" height="26.58"/>
  <rect class="st0" x="377.74" y="526.71" width="26.58" height="26.58"/>
  <rect class="st0" x="377.74" y="563.95" width="26.58" height="26.58"/>
  <rect class="st0" x="377.74" y="638.43" width="26.58" height="26.58"/>
  <rect class="st0" x="377.74" y="675.67" width="26.58" height="26.58"/>
  <rect class="st0" x="377.74" y="787.4" width="26.58" height="26.58"/>
  <rect class="st0" x="377.74" y="973.6" width="26.58" height="26.58"/>
  <rect class="st0" x="377.74" y="1010.84" width="26.58" height="26.58"/>
  <rect class="st0" x="414.98" y="79.81" width="26.58" height="26.58"/>
  <rect class="st0" x="414.98" y="154.3" width="26.58" height="26.58"/>
  <rect class="st0" x="414.98" y="191.54" width="26.58" height="26.58"/>
  <rect class="st0" x="414.98" y="340.5" width="26.58" height="26.58"/>
  <rect class="st0" x="414.98" y="414.98" width="26.58" height="26.58"/>
  <rect class="st0" x="414.98" y="452.23" width="26.58" height="26.58"/>
  <rect class="st0" x="414.98" y="489.47" width="26.58" height="26.58"/>
  <rect class="st0" x="414.98" y="526.71" width="26.58" height="26.58"/>
  <rect class="st0" x="414.98" y="563.95" width="26.58" height="26.58"/>
  <rect class="st0" x="414.98" y="712.91" width="26.58" height="26.58"/>
  <rect class="st0" x="414.98" y="750.16" width="26.58" height="26.58"/>
  <rect class="st0" x="414.98" y="787.4" width="26.58" height="26.58"/>
  <rect class="st0" x="414.98" y="824.64" width="26.58" height="26.58"/>
  <rect class="st0" x="414.98" y="861.88" width="26.58" height="26.58"/>
  <rect class="st0" x="414.98" y="899.12" width="26.58" height="26.58"/>
  <rect class="st0" x="414.98" y="1048.08" width="26.58" height="26.58"/>
  <rect class="st0" x="452.23" y="5.33" width="26.58" height="26.58"/>
  <rect class="st0" x="452.23" y="79.81" width="26.58" height="26.58"/>
  <rect class="st0" x="452.23" y="117.05" width="26.58" height="26.58"/>
  <rect class="st0" x="452.23" y="191.54" width="26.58" height="26.58"/>
  <rect class="st0" x="452.23" y="228.78" width="26.58" height="26.58"/>
  <rect class="st0" x="452.23" y="414.98" width="26.58" height="26.58"/>
  <rect class="st0" x="452.23" y="638.43" width="26.58" height="26.58"/>
  <rect class="st0" x="452.23" y="712.91" width="26.58" height="26.58"/>
  <rect class="st0" x="452.23" y="787.4" width="26.58" height="26.58"/>
  <rect class="st0" x="452.23" y="936.36" width="26.58" height="26.58"/>
  <rect class="st0" x="452.23" y="973.6" width="26.58" height="26.58"/>
  <rect class="st0" x="489.47" y="42.57" width="26.58" height="26.58"/>
  <rect class="st0" x="489.47" y="79.81" width="26.58" height="26.58"/>
  <rect class="st0" x="489.47" y="117.05" width="26.58" height="26.58"/>
  <rect class="st0" x="489.47" y="154.3" width="26.58" height="26.58"/>
  <rect class="st0" x="489.47" y="414.98" width="26.58" height="26.58"/>
  <rect class="st0" x="489.47" y="638.43" width="26.58" height="26.58"/>
  <rect class="st0" x="489.47" y="675.67" width="26.58" height="26.58"/>
  <rect class="st0" x="489.47" y="712.91" width="26.58" height="26.58"/>
  <rect class="st0" x="489.47" y="824.64" width="26.58" height="26.58"/>
  <rect class="st0" x="489.47" y="973.6" width="26.58" height="26.58"/>
  <rect class="st0" x="489.47" y="1010.84" width="26.58" height="26.58"/>
  <rect class="st0" x="489.47" y="1048.08" width="26.58" height="26.58"/>
  <rect class="st0" x="526.71" y="5.33" width="26.58" height="26.58"/>
  <rect class="st0" x="526.71" y="79.81" width="26.58" height="26.58"/>
  <rect class="st0" x="526.71" y="154.3" width="26.58" height="26.58"/>
  <rect class="st0" x="526.71" y="228.78" width="26.58" height="26.58"/>
  <rect class="st0" x="526.71" y="266.02" width="26.58" height="26.58"/>
  <rect class="st0" x="526.71" y="303.26" width="26.58" height="26.58"/>
  <rect class="st0" x="526.71" y="340.5" width="26.58" height="26.58"/>
  <rect class="st0" x="526.71" y="675.67" width="26.58" height="26.58"/>
  <rect class="st0" x="526.71" y="712.91" width="26.58" height="26.58"/>
  <rect class="st0" x="526.71" y="750.16" width="26.58" height="26.58"/>
  <rect class="st0" x="526.71" y="787.4" width="26.58" height="26.58"/>
  <rect class="st0" x="526.71" y="899.12" width="26.58" height="26.58"/>
  <rect class="st0" x="526.71" y="973.6" width="26.58" height="26.58"/>
  <rect class="st0" x="526.71" y="1010.84" width="26.58" height="26.58"/>
  <rect class="st0" x="526.71" y="1048.08" width="26.58" height="26.58"/>
  <rect class="st0" x="563.95" y="5.33" width="26.58" height="26.58"/>
  <rect class="st0" x="563.95" y="42.57" width="26.58" height="26.58"/>
  <rect class="st0" x="563.95" y="340.5" width="26.58" height="26.58"/>
  <rect class="st0" x="563.95" y="414.98" width="26.58" height="26.58"/>
  <rect class="st0" x="563.95" y="712.91" width="26.58" height="26.58"/>
  <rect class="st0" x="563.95" y="750.16" width="26.58" height="26.58"/>
  <rect class="st0" x="563.95" y="861.88" width="26.58" height="26.58"/>
  <rect class="st0" x="563.95" y="1010.84" width="26.58" height="26.58"/>
  <rect class="st0" x="601.19" y="42.57" width="26.58" height="26.58"/>
  <rect class="st0" x="601.19" y="79.81" width="26.58" height="26.58"/>
  <rect class="st0" x="601.19" y="117.05" width="26.58" height="26.58"/>
  <rect class="st0" x="601.19" y="228.78" width="26.58" height="26.58"/>
  <rect class="st0" x="601.19" y="266.02" width="26.58" height="26.58"/>
  <rect class="st0" x="601.19" y="303.26" width="26.58" height="26.58"/>
  <rect class="st0" x="601.19" y="340.5" width="26.58" height="26.58"/>
  <rect class="st0" x="601.19" y="675.67" width="26.58" height="26.58"/>
  <rect class="st0" x="601.19" y="712.91" width="26.58" height="26.58"/>
  <rect class="st0" x="601.19" y="750.16" width="26.58" height="26.58"/>
  <rect class="st0" x="601.19" y="787.4" width="26.58" height="26.58"/>
  <rect class="st0" x="601.19" y="861.88" width="26.58" height="26.58"/>
  <rect class="st0" x="601.19" y="899.12" width="26.58" height="26.58"/>
  <rect class="st0" x="601.19" y="936.36" width="26.58" height="26.58"/>
  <rect class="st0" x="601.19" y="1010.84" width="26.58" height="26.58"/>
  <rect class="st0" x="638.43" y="79.81" width="26.58" height="26.58"/>
  <rect class="st0" x="638.43" y="117.05" width="26.58" height="26.58"/>
  <rect class="st0" x="638.43" y="154.3" width="26.58" height="26.58"/>
  <rect class="st0" x="638.43" y="377.74" width="26.58" height="26.58"/>
  <rect class="st0" x="638.43" y="489.47" width="26.58" height="26.58"/>
  <rect class="st0" x="638.43" y="638.43" width="26.58" height="26.58"/>
  <rect class="st0" x="638.43" y="675.67" width="26.58" height="26.58"/>
  <rect class="st0" x="638.43" y="750.16" width="26.58" height="26.58"/>
  <rect class="st0" x="638.43" y="787.4" width="26.58" height="26.58"/>
  <rect class="st0" x="638.43" y="936.36" width="26.58" height="26.58"/>
  <rect class="st0" x="638.43" y="973.6" width="26.58" height="26.58"/>
  <rect class="st0" x="638.43" y="1010.84" width="26.58" height="26.58"/>
  <rect class="st0" x="675.67" y="5.33" width="26.58" height="26.58"/>
  <rect class="st0" x="675.67" y="117.05" width="26.58" height="26.58"/>
  <rect class="st0" x="675.67" y="191.54" width="26.58" height="26.58"/>
  <rect class="st0" x="675.67" y="228.78" width="26.58" height="26.58"/>
  <rect class="st0" x="675.67" y="266.02" width="26.58" height="26.58"/>
  <rect class="st0" x="675.67" y="340.5" width="26.58" height="26.58"/>
  <rect class="st0" x="675.67" y="414.98" width="26.58" height="26.58"/>
  <rect class="st0" x="675.67" y="452.23" width="26.58" height="26.58"/>
  <rect class="st0" x="675.67" y="675.67" width="26.58" height="26.58"/>
  <rect class="st0" x="675.67" y="750.16" width="26.58" height="26.58"/>
  <rect class="st0" x="675.67" y="787.4" width="26.58" height="26.58"/>
  <rect class="st0" x="675.67" y="973.6" width="26.58" height="26.58"/>
  <rect class="st0" x="712.91" y="117.05" width="26.58" height="26.58"/>
  <rect class="st0" x="712.91" y="154.3" width="26.58" height="26.58"/>
  <rect class="st0" x="712.91" y="191.54" width="26.58" height="26.58"/>
  <rect class="st0" x="712.91" y="266.02" width="26.58" height="26.58"/>
  <rect class="st0" x="712.91" y="303.26" width="26.58" height="26.58"/>
  <rect class="st0" x="712.91" y="377.74" width="26.58" height="26.58"/>
  <rect class="st0" x="712.91" y="414.98" width="26.58" height="26.58"/>
  <rect class="st0" x="712.91" y="563.95" width="26.58" height="26.58"/>
  <rect class="st0" x="712.91" y="601.19" width="26.58" height="26.58"/>
  <rect class="st0" x="712.91" y="638.43" width="26.58" height="26.58"/>
  <rect class="st0" x="712.91" y="675.67" width="26.58" height="26.58"/>
  <rect class="st0" x="712.91" y="712.91" width="26.58" height="26.58"/>
  <rect class="st0" x="712.91" y="750.16" width="26.58" height="26.58"/>
  <rect class="st0" x="712.91" y="787.4" width="26.58" height="26.58"/>
  <rect class="st0" x="712.91" y="861.88" width="26.58" height="26.58"/>
  <rect class="st0" x="712.91" y="973.6" width="26.58" height="26.58"/>
  <rect class="st0" x="750.16" y="42.57" width="26.58" height="26.58"/>
  <rect class="st0" x="750.16" y="79.81" width="26.58" height="26.58"/>
  <rect class="st0" x="750.16" y="117.05" width="26.58" height="26.58"/>
  <rect class="st0" x="750.16" y="228.78" width="26.58" height="26.58"/>
  <rect class="st0" x="750.16" y="266.02" width="26.58" height="26.58"/>
  <rect class="st0" x="750.16" y="303.26" width="26.58" height="26.58"/>
  <rect class="st0" x="750.16" y="414.98" width="26.58" height="26.58"/>
  <rect class="st0" x="750.16" y="452.23" width="26.58" height="26.58"/>
  <rect class="st0" x="750.16" y="489.47" width="26.58" height="26.58"/>
  <rect class="st0" x="750.16" y="563.95" width="26.58" height="26.58"/>
  <rect class="st0" x="750.16" y="638.43" width="26.58" height="26.58"/>
  <rect class="st0" x="750.16" y="675.67" width="26.58" height="26.58"/>
  <rect class="st0" x="750.16" y="712.91" width="26.58" height="26.58"/>
  <rect class="st0" x="750.16" y="750.16" width="26.58" height="26.58"/>
  <rect class="st0" x="750.16" y="787.4" width="26.58" height="26.58"/>
  <rect class="st0" x="750.16" y="824.64" width="26.58" height="26.58"/>
  <rect class="st0" x="750.16" y="861.88" width="26.58" height="26.58"/>
  <rect class="st0" x="750.16" y="899.12" width="26.58" height="26.58"/>
  <rect class="st0" x="750.16" y="936.36" width="26.58" height="26.58"/>
  <rect class="st0" x="750.16" y="973.6" width="26.58" height="26.58"/>
  <rect class="st0" x="787.4" y="303.26" width="26.58" height="26.58"/>
  <rect class="st0" x="787.4" y="340.5" width="26.58" height="26.58"/>
  <rect class="st0" x="787.4" y="489.47" width="26.58" height="26.58"/>
  <rect class="st0" x="787.4" y="526.71" width="26.58" height="26.58"/>
  <rect class="st0" x="787.4" y="563.95" width="26.58" height="26.58"/>
  <rect class="st0" x="787.4" y="750.16" width="26.58" height="26.58"/>
  <rect class="st0" x="787.4" y="899.12" width="26.58" height="26.58"/>
  <rect class="st0" x="787.4" y="936.36" width="26.58" height="26.58"/>
  <rect class="st0" x="787.4" y="973.6" width="26.58" height="26.58"/>
  <rect class="st0" x="787.4" y="1010.84" width="26.58" height="26.58"/>
  <rect class="st0" x="787.4" y="1048.08" width="26.58" height="26.58"/>
  <rect class="st0" x="824.64" y="303.26" width="26.58" height="26.58"/>
  <rect class="st0" x="824.64" y="340.5" width="26.58" height="26.58"/>
  <rect class="st0" x="824.64" y="377.74" width="26.58" height="26.58"/>
  <rect class="st0" x="824.64" y="489.47" width="26.58" height="26.58"/>
  <rect class="st0" x="824.64" y="601.19" width="26.58" height="26.58"/>
  <rect class="st0" x="824.64" y="638.43" width="26.58" height="26.58"/>
  <rect class="st0" x="824.64" y="712.91" width="26.58" height="26.58"/>
  <rect class="st0" x="824.64" y="750.16" width="26.58" height="26.58"/>
  <rect class="st0" x="824.64" y="824.64" width="26.58" height="26.58"/>
  <rect class="st0" x="824.64" y="899.12" width="26.58" height="26.58"/>
  <rect class="st0" x="824.64" y="936.36" width="26.58" height="26.58"/>
  <rect class="st0" x="824.64" y="1010.84" width="26.58" height="26.58"/>
  <rect class="st0" x="861.88" y="303.26" width="26.58" height="26.58"/>
  <rect class="st0" x="861.88" y="452.23" width="26.58" height="26.58"/>
  <rect class="st0" x="861.88" y="601.19" width="26.58" height="26.58"/>
  <rect class="st0" x="861.88" y="675.67" width="26.58" height="26.58"/>
  <rect class="st0" x="861.88" y="750.16" width="26.58" height="26.58"/>
  <rect class="st0" x="861.88" y="899.12" width="26.58" height="26.58"/>
  <rect class="st0" x="861.88" y="936.36" width="26.58" height="26.58"/>
  <rect class="st0" x="861.88" y="1010.84" width="26.58" height="26.58"/>
  <rect class="st0" x="861.88" y="1048.08" width="26.58" height="26.58"/>
  <rect class="st0" x="899.12" y="340.5" width="26.58" height="26.58"/>
  <rect class="st0" x="899.12" y="377.74" width="26.58" height="26.58"/>
  <rect class="st0" x="899.12" y="452.23" width="26.58" height="26.58"/>
  <rect class="st0" x="899.12" y="526.71" width="26.58" height="26.58"/>
  <rect class="st0" x="899.12" y="563.95" width="26.58" height="26.58"/>
  <rect class="st0" x="899.12" y="750.16" width="26.58" height="26.58"/>
  <rect class="st0" x="899.12" y="787.4" width="26.58" height="26.58"/>
  <rect class="st0" x="899.12" y="824.64" width="26.58" height="26.58"/>
  <rect class="st0" x="899.12" y="861.88" width="26.58" height="26.58"/>
  <rect class="st0" x="899.12" y="899.12" width="26.58" height="26.58"/>
  <rect class="st0" x="899.12" y="973.6" width="26.58" height="26.58"/>
  <rect class="st0" x="899.12" y="1048.08" width="26.58" height="26.58"/>
  <rect class="st0" x="936.36" y="303.26" width="26.58" height="26.58"/>
  <rect class="st0" x="936.36" y="377.74" width="26.58" height="26.58"/>
  <rect class="st0" x="936.36" y="452.23" width="26.58" height="26.58"/>
  <rect class="st0" x="936.36" y="526.71" width="26.58" height="26.58"/>
  <rect class="st0" x="936.36" y="601.19" width="26.58" height="26.58"/>
  <rect class="st0" x="936.36" y="638.43" width="26.58" height="26.58"/>
  <rect class="st0" x="936.36" y="787.4" width="26.58" height="26.58"/>
  <rect class="st0" x="936.36" y="899.12" width="26.58" height="26.58"/>
  <rect class="st0" x="936.36" y="936.36" width="26.58" height="26.58"/>
  <rect class="st0" x="936.36" y="1010.84" width="26.58" height="26.58"/>
  <rect class="st0" x="973.6" y="303.26" width="26.58" height="26.58"/>
  <rect class="st0" x="973.6" y="340.5" width="26.58" height="26.58"/>
  <rect class="st0" x="973.6" y="377.74" width="26.58" height="26.58"/>
  <rect class="st0" x="973.6" y="489.47" width="26.58" height="26.58"/>
  <rect class="st0" x="973.6" y="526.71" width="26.58" height="26.58"/>
  <rect class="st0" x="973.6" y="563.95" width="26.58" height="26.58"/>
  <rect class="st0" x="973.6" y="601.19" width="26.58" height="26.58"/>
  <rect class="st0" x="973.6" y="638.43" width="26.58" height="26.58"/>
  <rect class="st0" x="973.6" y="750.16" width="26.58" height="26.58"/>
  <rect class="st0" x="973.6" y="787.4" width="26.58" height="26.58"/>
  <rect class="st0" x="973.6" y="861.88" width="26.58" height="26.58"/>
  <rect class="st0" x="973.6" y="973.6" width="26.58" height="26.58"/>
  <rect class="st0" x="973.6" y="1048.08" width="26.58" height="26.58"/>
  <rect class="st0" x="1010.84" y="377.74" width="26.58" height="26.58"/>
  <rect class="st0" x="1010.84" y="414.98" width="26.58" height="26.58"/>
  <rect class="st0" x="1010.84" y="489.47" width="26.58" height="26.58"/>
  <rect class="st0" x="1010.84" y="526.71" width="26.58" height="26.58"/>
  <rect class="st0" x="1010.84" y="601.19" width="26.58" height="26.58"/>
  <rect class="st0" x="1010.84" y="675.67" width="26.58" height="26.58"/>
  <rect class="st0" x="1010.84" y="750.16" width="26.58" height="26.58"/>
  <rect class="st0" x="1010.84" y="787.4" width="26.58" height="26.58"/>
  <rect class="st0" x="1010.84" y="861.88" width="26.58" height="26.58"/>
  <rect class="st0" x="1010.84" y="899.12" width="26.58" height="26.58"/>
  <rect class="st0" x="1010.84" y="936.36" width="26.58" height="26.58"/>
  <rect class="st0" x="1010.84" y="1010.84" width="26.58" height="26.58"/>
  <rect class="st0" x="1048.08" y="303.26" width="26.58" height="26.58"/>
  <rect class="st0" x="1048.08" y="414.98" width="26.58" height="26.58"/>
  <rect class="st0" x="1048.08" y="526.71" width="26.58" height="26.58"/>
  <rect class="st0" x="1048.08" y="563.95" width="26.58" height="26.58"/>
  <rect class="st0" x="1048.08" y="638.43" width="26.58" height="26.58"/>
  <rect class="st0" x="1048.08" y="750.16" width="26.58" height="26.58"/>
  <rect class="st0" x="1048.08" y="824.64" width="26.58" height="26.58"/>
  <rect class="st0" x="1048.08" y="861.88" width="26.58" height="26.58"/>
  <rect class="st0" x="1048.08" y="936.36" width="26.58" height="26.58"/>
  <rect class="st0" x="1048.08" y="1010.84" width="26.58" height="26.58"/>
  <path class="st0" d="M0,37.25v186.2c0,20.56,16.68,37.25,37.25,37.25h186.2c20.56,0,37.25-16.68,37.25-37.25V37.25c0-20.56-16.68-37.25-37.25-37.25H37.25C16.68,0,0,16.68,0,37.25h0ZM55.86,37.25h148.96c10.29,0,18.62,8.33,18.62,18.62v148.96c0,10.29-8.33,18.62-18.62,18.62H55.86c-10.29,0-18.62-8.33-18.62-18.62V55.86c0-10.29,8.33-18.62,18.62-18.62h0ZM55.86,37.25"/>
  <rect class="st0" x="74.48" y="74.48" width="111.72" height="111.72"/>
  <path class="st0" d="M1042.75,0h-186.2c-20.56,0-37.25,16.68-37.25,37.25v186.2c0,20.56,16.68,37.25,37.25,37.25h186.2c20.56,0,37.25-16.68,37.25-37.25V37.25c0-20.56-16.68-37.25-37.25-37.25h0ZM1042.75,55.86v148.96c0,10.29-8.33,18.62-18.62,18.62h-148.96c-10.29,0-18.62-8.33-18.62-18.62V55.86c0-10.29,8.33-18.62,18.62-18.62h148.96c10.29,0,18.62,8.33,18.62,18.62h0ZM1042.75,55.86"/>
  <rect class="st0" x="893.79" y="74.48" width="111.72" height="111.72"/>
  <path class="st0" d="M37.25,1080h186.2c20.56,0,37.25-16.68,37.25-37.25v-186.2c0-20.56-16.68-37.25-37.25-37.25H37.25c-20.56,0-37.25,16.68-37.25,37.25v186.2c0,20.56,16.68,37.25,37.25,37.25h0ZM37.25,1024.14v-148.96c0-10.29,8.33-18.62,18.62-18.62h148.96c10.29,0,18.62,8.33,18.62,18.62v148.96c0,10.29-8.33,18.62-18.62,18.62H55.86c-10.29,0-18.62-8.33-18.62-18.62h0ZM37.25,1024.14"/>
  <rect class="st0" x="74.48" y="893.79" width="111.72" height="111.72"/>
  <path class="st0" d="M587.04,454.35h-94.08c-21.32,0-38.61,17.3-38.61,38.61v94.08c0,21.31,17.3,38.61,38.61,38.61h94.08c21.32,0,38.61-17.3,38.61-38.61v-94.08c0-21.31-17.3-38.61-38.61-38.61ZM584.86,560.44c-11.98,13.8-38.77,30.61-44.88,33.18-6.08,2.55-5.19-1.66-4.94-3.08.14-.86.81-4.9.81-4.9.18-1.45.39-3.71-.18-5.16-.65-1.59-3.18-2.41-5.04-2.82-27.42-3.61-47.76-22.8-47.76-45.71,0-25.56,25.63-46.37,57.11-46.37s57.13,20.8,57.13,46.37c0,10.21-3.98,19.44-12.25,28.5Z"/>
  <path class="st0" d="M578.1,546.7h-16.07c-.29,0-.55-.12-.76-.32-.2-.2-.3-.47-.3-.76v-24.91c0-.29.1-.58.3-.78.2-.18.47-.3.76-.3h16.07c.29,0,.55.12.76.3.2.2.3.49.3.78v4.04c0,.29-.1.55-.3.76-.2.2-.47.3-.76.3h-10.9v4.21h10.9c.29,0,.55.12.76.32.2.18.3.47.3.76v4.08c0,.29-.1.55-.3.76-.2.2-.47.3-.76.3h-10.9v4.23h10.9c.29,0,.55.1.76.3.2.2.3.47.3.76v4.04c0,.15-.02.29-.06.43-.06.13-.14.25-.22.37-.1.1-.22.18-.37.22-.12.06-.27.1-.41.1h0ZM578.1,546.7"/>
  <path class="st0" d="M518.75,546.67c.28,0,.55-.1.75-.3.2-.2.31-.47.31-.76v-4.04c0-.29-.1-.55-.31-.76-.2-.2-.47-.32-.75-.32h-10.9v-19.8c0-.29-.13-.55-.33-.76-.18-.2-.47-.3-.75-.3h-4.07c-.28,0-.55.1-.75.3-.2.2-.31.47-.31.76v24.91c0,.29.1.58.31.76.2.2.47.32.75.32h16.07-.02ZM518.75,546.67"/>
  <path class="st0" d="M528.4,519.58h-4.04c-.61,0-1.1.49-1.1,1.08v24.93c0,.61.49,1.08,1.1,1.08h4.04c.6,0,1.08-.47,1.08-1.08v-24.93c0-.6-.49-1.08-1.08-1.08h0ZM528.4,519.58"/>
  <path class="st0" d="M555.97,519.58h-4.05c-.28,0-.55.1-.75.3-.2.2-.31.47-.31.76v14.8l-11.41-15.39s-.06-.08-.08-.1l-.06-.08-.06-.04h-.04l-.06-.04h-.02l-.06-.04h-4.53c-.29,0-.55.12-.75.32-.2.21-.33.47-.33.76v24.93c0,.28.13.55.33.75.2.2.47.31.75.31h4.05c.28,0,.55-.1.75-.31.2-.2.33-.47.33-.75v-14.97l11.41,15.41c.08.13.16.21.29.29l.06.04h.02l.06.02h.16c.1.04.19.04.29.04h4.02c.28,0,.57-.1.75-.31.2-.2.33-.47.33-.75v-24.87c0-.15-.02-.29-.08-.41-.04-.15-.12-.27-.22-.37-.1-.1-.22-.18-.34-.22-.15-.06-.29-.08-.43-.08h0ZM555.97,519.58"/>
</svg>